<svg width="150" height="150" viewBox="0 0 512 512" xml:space="preserve" xmlns="http://www.w3.org/2000/svg"><path d="M494.422 331.832a6.749 6.749 0 0 0-9.447 1.368l-19.854 26.587-74.773-133.291a6.748 6.748 0 0 0-3.267-2.919l-190.735-80.309 17.215-28.396a6.75 6.75 0 0 0-11.543-6.999l-14.898 24.573-11.989-24.083a6.748 6.748 0 0 0-9.051-3.033 6.748 6.748 0 0 0-3.033 9.051l15.793 31.724-1.536 2.534-42.659 69.323-87.499 142.183L27.025 333.2a6.748 6.748 0 0 0-9.447-1.368 6.75 6.75 0 0 0-1.369 9.447l26.068 34.907.002.002c.227.304.483.578.755.836l.003.003c.145.138.29.272.444.396.144.115.297.215.449.316.083.057.163.117.248.169l.001.001c.57.346 1.189.607 1.843.772v.001c.126.031.253.054.38.077.419.081.846.138 1.283.138h416.629l.033-.002c.022-.001.045-.005.067-.005a6.663 6.663 0 0 0 1.022-.099 6.93 6.93 0 0 0 .52-.104h.001a6.75 6.75 0 0 0 3.716-2.442c.016-.021.033-.038.049-.059l26.067-34.907a6.749 6.749 0 0 0-1.367-9.447zM269.17 365.397c-63.816-47.975-81.071-131.612-81.239-132.455a6.745 6.745 0 0 0-6.502-5.441c-3.143-.071-5.966 2.11-6.691 5.207-16.769 71.537-76.254 123.579-87.24 132.689H59.766l126.319-205.271 107.374 205.271H269.17zm48.902 0 18.011-24.118a6.75 6.75 0 0 0-10.815-8.079l-19.65 26.313-104.374-199.534 178.462 75.142 73.082 130.276H318.072zM182.189 393.879H90.453c-3.729 0-6.75 3.021-6.75 6.75s3.021 6.75 6.75 6.75h91.736c3.729 0 6.75-3.021 6.75-6.75s-3.021-6.75-6.75-6.75zM225.39 393.879h-14.85c-3.729 0-6.75 3.021-6.75 6.75s3.021 6.75 6.75 6.75h14.85c3.729 0 6.75-3.021 6.75-6.75s-3.022-6.75-6.75-6.75zM307.739 393.879h-55.35c-3.729 0-6.75 3.021-6.75 6.75s3.021 6.75 6.75 6.75h55.35c3.729 0 6.75-3.021 6.75-6.75s-3.021-6.75-6.75-6.75z" fill="#ffffff" class="fill-000000"></path><path d="m288.795 164.631 13.713 5.696a6.709 6.709 0 0 0 2.587.519 6.749 6.749 0 0 0 2.591-12.984l-13.713-5.697a6.75 6.75 0 0 0-5.178 12.466zM327.442 180.685l51.117 21.232a6.751 6.751 0 0 0 5.178-12.466l-51.117-21.232c-3.438-1.432-7.392.202-8.822 3.645a6.75 6.75 0 0 0 3.644 8.821z" fill="#ffffff" class="fill-000000"></path></svg>